<svg width="61" height="61" viewBox="0 0 61 61" fill="none" xmlns="http://www.w3.org/2000/svg">
<path d="M30.6364 60.2206C47.2078 60.2206 60.6415 46.7869 60.6415 30.2155C60.6415 13.6442 47.2078 0.210449 30.6364 0.210449C14.0651 0.210449 0.631348 13.6442 0.631348 30.2155C0.631348 46.7869 14.0651 60.2206 30.6364 60.2206Z" fill="#2B3854"/>
<path d="M33.3264 30.7121C33.3264 27.7581 35.7211 25.3633 38.6751 25.3633C41.6291 25.3633 44.0239 27.7581 44.0239 30.7121C44.0239 33.6661 41.6291 36.0608 38.6751 36.0608C35.7211 36.0608 33.3264 33.6661 33.3264 30.7121Z" fill="#00BCFF"/>
<path d="M22.6292 41.4095C22.6292 38.4555 25.0239 36.0608 27.9779 36.0608L30.8283 34.5559L33.3266 36.0608V41.4095C33.3266 44.3636 30.9319 46.7582 27.9779 46.7582C25.0239 46.7582 22.6292 44.3635 22.6292 41.4095Z" fill="#00CF7F"/>
<path d="M33.3268 14.6658L30.4163 19.7223L33.3268 25.3633H38.6005C41.5545 25.3633 43.9492 22.9686 43.9492 20.0146C43.9492 17.0605 41.5545 14.6658 38.6005 14.6658H33.3268Z" fill="#FF7361"/>
<path d="M22.5542 20.0146C22.5542 22.9686 24.9489 25.3633 27.9029 25.3633L30.7403 26.4592L33.3267 25.3633V14.6658H27.9029C24.9489 14.6658 22.5542 17.0605 22.5542 20.0146Z" fill="#FF4D12"/>
<path d="M22.6292 30.7121C22.6292 33.6661 25.0239 36.0608 27.9779 36.0608H33.3266V25.3633H27.9779C25.0239 25.3633 22.6292 27.7581 22.6292 30.7121Z" fill="#B659FF"/>
</svg>
