<svg width="20" height="20" viewBox="0 0 20 20" fill="none" xmlns="http://www.w3.org/2000/svg">
<path d="M9.98103 0C4.46651 0 0 4.39165 0 9.80803C0 14.1423 2.85957 17.8178 6.82453 19.1137C7.32358 19.206 7.50657 18.9024 7.50657 18.6421C7.50657 18.4092 7.49825 17.792 7.49409 16.9744C4.7177 17.5658 4.13215 15.6586 4.13215 15.6586C3.67801 14.5266 3.02176 14.2238 3.02176 14.2238C2.11764 13.6158 3.09162 13.6283 3.09162 13.6283C4.09389 13.6965 4.62039 14.6388 4.62039 14.6388C5.51036 16.1385 6.95678 15.7052 7.52736 15.4548C7.61719 14.8202 7.8742 14.3885 8.15949 14.1431C5.94287 13.8978 3.61313 13.0544 3.61313 9.2965C3.61313 8.22603 3.9999 7.35103 4.64035 6.66483C4.52806 6.41697 4.1912 5.4197 4.72768 4.06893C4.72768 4.06893 5.56359 3.8061 7.47247 5.07452C8.27095 4.8566 9.11934 4.74848 9.96772 4.74349C10.8161 4.74848 11.6645 4.8566 12.463 5.07452C14.3594 3.8061 15.1953 4.06893 15.1953 4.06893C15.7318 5.4197 15.3949 6.41697 15.2951 6.66483C15.9314 7.35103 16.3182 8.22603 16.3182 9.2965C16.3182 13.0643 13.9851 13.8936 11.7643 14.1348C12.1136 14.4292 12.438 15.0306 12.438 15.9497C12.438 17.2622 12.4256 18.3169 12.4256 18.6354C12.4256 18.8924 12.6002 19.1993 13.1117 19.1012C17.105 17.8136 19.9621 14.1356 19.9621 9.80803C19.9621 4.39165 15.4931 0 9.98103 0Z" fill="#7D89A6"/>
</svg>
