<svg width="61" height="61" viewBox="0 0 61 61" fill="none" xmlns="http://www.w3.org/2000/svg">
<path d="M30.1902 60.4108C46.7615 60.4108 60.1952 46.9771 60.1952 30.4057C60.1952 13.8344 46.7615 0.400635 30.1902 0.400635C13.6188 0.400635 0.185059 13.8344 0.185059 30.4057C0.185059 46.9771 13.6188 60.4108 30.1902 60.4108Z" fill="#2B3854"/>
<path d="M30.1908 8.89178C17.7877 8.89178 7.7417 18.7694 7.7417 30.9517C7.7417 40.7002 14.1734 48.9671 23.0912 51.8817C24.2137 52.0894 24.6253 51.4066 24.6253 50.821C24.6253 50.2972 24.6066 48.9091 24.5972 47.0702C18.3526 48.4003 17.0356 44.1106 17.0356 44.1106C16.0142 41.5645 14.5382 40.8836 14.5382 40.8836C12.5046 39.5161 14.6953 39.5441 14.6953 39.5441C16.9496 39.6975 18.1337 41.8171 18.1337 41.8171C20.1355 45.1901 23.3887 44.2154 24.672 43.6523C24.8741 42.2249 25.4521 41.254 26.0938 40.7021C21.1082 40.1502 15.8683 38.2533 15.8683 29.8012C15.8683 27.3936 16.7382 25.4255 18.1786 23.8821C17.9261 23.3247 17.1684 21.0816 18.3751 18.0435C18.3751 18.0435 20.2552 17.4524 24.5486 20.3053C26.3445 19.8151 28.2527 19.5719 30.1608 19.5607C32.069 19.5719 33.9772 19.8151 35.7731 20.3053C40.0384 17.4524 41.9185 18.0435 41.9185 18.0435C43.1252 21.0816 42.3675 23.3247 42.143 23.8821C43.5742 25.4255 44.444 27.3936 44.444 29.8012C44.444 38.2757 39.1966 40.1409 34.2017 40.6834C34.9874 41.3457 35.717 42.6982 35.717 44.7654C35.717 47.7174 35.6889 50.0896 35.6889 50.8061C35.6889 51.3841 36.0818 52.0744 37.2323 51.8537C46.2138 48.9578 52.6398 40.6853 52.6398 30.9517C52.6398 18.7694 42.5883 8.89178 30.1908 8.89178Z" fill="white"/>
</svg>
