<svg width="36" height="35" viewBox="0 0 36 35" fill="none" xmlns="http://www.w3.org/2000/svg">
<path d="M0.214355 0.0065918H35.0625V34.868H0.214355V0.0065918Z" fill="#FFDF00"/>
<path d="M23.6244 27.2424C24.3264 28.389 25.2396 29.2317 26.8548 29.2317C28.2117 29.2317 29.0785 28.5533 29.0785 27.6159C29.0785 26.4926 28.1879 26.0947 26.6944 25.4412L25.8758 25.0898C23.5127 24.0827 21.9429 22.821 21.9429 20.1538C21.9429 17.6969 23.8142 15.8266 26.7387 15.8266C28.8207 15.8266 30.3175 16.5515 31.3961 18.4495L28.8462 20.0875C28.2847 19.0804 27.679 18.6836 26.7387 18.6836C25.7795 18.6836 25.1716 19.2923 25.1716 20.0875C25.1716 21.0703 25.7801 21.4681 27.185 22.0768L28.0037 22.4276C30.786 23.6212 32.3569 24.838 32.3569 27.5738C32.3569 30.5232 30.0409 32.139 26.9305 32.139C23.8893 32.139 21.9246 30.6892 20.9632 28.789L23.6244 27.2424ZM12.0565 27.5263C12.5709 28.4394 13.0389 29.2113 14.164 29.2113C15.2399 29.2113 15.9186 28.7902 15.9186 27.1528V16.0137H19.1932V27.197C19.1932 30.5891 17.2052 32.133 14.3034 32.133C11.6815 32.133 10.1631 30.7756 9.39087 29.1407L12.0565 27.5263Z" fill="black"/>
</svg>
