<svg width="20" height="20" viewBox="0 0 20 20" fill="none" xmlns="http://www.w3.org/2000/svg">
<path d="M2 2H17V18H2V2Z" fill="#181B28"/>
<path fill-rule="evenodd" clip-rule="evenodd" d="M1.77501 0H17.3556C18.3359 0 19.1306 0.794701 19.1306 1.77501V17.3556C19.1306 18.3359 18.3359 19.1306 17.3556 19.1306H1.77501C0.794701 19.1306 0 18.3359 0 17.3556V1.77501C0 0.794701 0.794701 0 1.77501 0ZM6.61688 6.12317C6.79603 5.85505 6.89166 5.53982 6.89166 5.21734C6.89166 4.78492 6.71988 4.37021 6.41411 4.06444C6.10834 3.75867 5.69363 3.5869 5.26121 3.5869C4.93874 3.5869 4.62351 3.68252 4.35538 3.86168C4.08725 4.04083 3.87828 4.29547 3.75487 4.5934C3.63147 4.89132 3.59918 5.21915 3.66209 5.53543C3.725 5.8517 3.88029 6.14222 4.10831 6.37025C4.33633 6.59827 4.62685 6.75355 4.94312 6.81646C5.2594 6.87938 5.58723 6.84709 5.88515 6.72368C6.18308 6.60028 6.43772 6.3913 6.61688 6.12317ZM6.5222 7.93487V15.1382C6.52249 15.1913 6.51227 15.244 6.49213 15.2932C6.472 15.3424 6.44234 15.3871 6.40486 15.4247C6.36739 15.4624 6.32283 15.4923 6.27377 15.5127C6.2247 15.5331 6.17208 15.5436 6.11894 15.5436H4.40045C4.34731 15.5438 4.29466 15.5334 4.24554 15.5131C4.19642 15.4929 4.15178 15.4631 4.11421 15.4255C4.07663 15.3879 4.04685 15.3433 4.02658 15.2942C4.00631 15.2451 3.99595 15.1924 3.9961 15.1393V7.93487C3.9961 7.82763 4.0387 7.72478 4.11453 7.64895C4.19036 7.57312 4.29321 7.53052 4.40045 7.53052H6.11894C6.22599 7.53081 6.32856 7.57353 6.40416 7.64933C6.47975 7.72513 6.5222 7.82782 6.5222 7.93487ZM15.5048 15.1718V11.6848L15.5048 11.6584C15.5049 10.1377 15.5051 7.41089 12.5678 7.41089C11.2341 7.41089 10.6091 7.89894 10.1874 8.53155V7.90328C10.1874 7.80469 10.1482 7.71014 10.0785 7.64042C10.0088 7.57071 9.9142 7.53154 9.81561 7.53154H8.03081C7.98205 7.53154 7.93376 7.54116 7.88872 7.55986C7.84368 7.57855 7.80277 7.60595 7.76834 7.64049C7.7339 7.67502 7.70662 7.71601 7.68806 7.76111C7.6695 7.8062 7.66001 7.85452 7.66016 7.90328V15.1718C7.66001 15.2206 7.6695 15.2689 7.68806 15.314C7.70662 15.3591 7.7339 15.4001 7.76834 15.4346C7.80277 15.4692 7.84368 15.4966 7.88872 15.5152C7.93376 15.5339 7.98205 15.5436 8.03081 15.5436H9.81561C9.91326 15.5421 10.0064 15.5023 10.075 15.4328C10.1435 15.3632 10.1819 15.2695 10.1819 15.1718V11.274C10.2276 10.75 10.4591 9.58373 11.595 9.58373C12.9533 9.58373 12.9265 11.0464 12.9152 11.6627C12.9143 11.7117 12.9135 11.7553 12.9135 11.7924V15.1718C12.9133 15.2207 12.9228 15.2691 12.9415 15.3143C12.9601 15.3594 12.9875 15.4005 13.022 15.435C13.0566 15.4696 13.0976 15.4969 13.1428 15.5156C13.1879 15.5342 13.2363 15.5437 13.2852 15.5436H15.133C15.1819 15.5437 15.2303 15.5342 15.2755 15.5156C15.3206 15.4969 15.3617 15.4696 15.3962 15.435C15.4308 15.4005 15.4582 15.3594 15.4768 15.3143C15.4954 15.2691 15.5049 15.2207 15.5048 15.1718Z" fill="#7D89A6"/>
</svg>
