<svg width="24" height="26" viewBox="0 0 24 26" fill="none" xmlns="http://www.w3.org/2000/svg">
<path d="M22.4765 0H0.85769C0.384001 0 0 0.38365 0 0.856906V24.4218C0 24.8951 0.384001 25.2787 0.85769 25.2787H22.4765C22.9502 25.2787 23.3342 24.8951 23.3342 24.4218V0.856906C23.3342 0.38365 22.9502 0 22.4765 0Z" fill="#8A5CE6"/>
<g filter="url(#filter0_d_74_4)">
<path d="M9 20.9272L9.00121 19.7717C9.36548 19.772 9.69736 19.7286 9.99685 19.6414C10.2913 19.56 10.521 19.4172 10.6859 19.2132C10.8458 19.0091 10.9135 18.729 10.8889 18.373L10.5783 14.7836C10.5339 14.2933 10.5592 13.8878 10.6544 13.5669C10.7495 13.246 10.9095 12.9952 11.1342 12.8146C11.3539 12.6339 11.636 12.5058 11.9804 12.4303C11.6312 12.3599 11.3444 12.237 11.12 12.0617C10.8956 11.8922 10.7387 11.647 10.6492 11.3259C10.5597 11.0107 10.5377 10.5934 10.5832 10.074L10.9013 6.48527C10.9266 6.12347 10.8595 5.84035 10.7001 5.63593C10.5406 5.43151 10.3112 5.28829 10.0119 5.20628C9.71257 5.12426 9.38077 5.08306 9.0165 5.08268L9.01771 3.92718C9.43687 3.92761 9.83852 3.9718 10.2227 4.05974C10.6068 4.14184 10.946 4.28517 11.2402 4.48974C11.5344 4.6943 11.7561 4.97465 11.9055 5.3308C12.0548 5.68111 12.1042 6.12469 12.0538 6.66154L11.7509 9.9877C11.7106 10.3903 11.7427 10.7288 11.8472 11.0032C11.9467 11.2776 12.166 11.485 12.5052 11.6255C12.8394 11.7717 13.3408 11.8452 14.0095 11.8459L14.0082 13.0189C13.3396 13.0182 12.838 13.0877 12.5035 13.2274C12.1641 13.3671 11.9443 13.5741 11.8442 13.8482C11.7391 14.1224 11.7063 14.458 11.7458 14.8548L12.0418 18.1991C12.0911 18.7361 12.0407 19.1796 11.8907 19.5296C11.7406 19.8854 11.5208 20.1653 11.2311 20.3692C10.9365 20.5732 10.597 20.7158 10.2127 20.7971C9.8234 20.8843 9.41916 20.9276 9 20.9272Z" fill="white"/>
</g>
<defs>
<filter id="filter0_d_74_4" x="9" y="3.92712" width="7.00952" height="19" filterUnits="userSpaceOnUse" color-interpolation-filters="sRGB">
<feFlood flood-opacity="0" result="BackgroundImageFix"/>
<feColorMatrix in="SourceAlpha" type="matrix" values="0 0 0 0 0 0 0 0 0 0 0 0 0 0 0 0 0 0 127 0" result="hardAlpha"/>
<feOffset dx="1" dy="1"/>
<feGaussianBlur stdDeviation="0.5"/>
<feComposite in2="hardAlpha" operator="out"/>
<feColorMatrix type="matrix" values="0 0 0 0 0 0 0 0 0 0 0 0 0 0 0 0 0 0 0.25 0"/>
<feBlend mode="normal" in2="BackgroundImageFix" result="effect1_dropShadow_74_4"/>
<feBlend mode="normal" in="SourceGraphic" in2="effect1_dropShadow_74_4" result="shape"/>
</filter>
</defs>
</svg>
