<svg width="24" height="26" viewBox="0 0 24 26" fill="none" xmlns="http://www.w3.org/2000/svg">
<path d="M22.4765 0.072876H0.85769C0.384001 0.072876 0 0.456526 0 0.929782V24.4947C0 24.968 0.384001 25.3516 0.85769 25.3516H22.4765C22.9502 25.3516 23.3342 24.968 23.3342 24.4947V0.929782C23.3342 0.456526 22.9502 0.072876 22.4765 0.072876Z" fill="#78BF13"/>
<g filter="url(#filter0_d_74_4)">
<path d="M9 21L9.00121 19.8445C9.36548 19.8449 9.69736 19.8015 9.99685 19.7143C10.2913 19.6329 10.521 19.4901 10.6859 19.286C10.8458 19.0819 10.9135 18.8019 10.8889 18.4459L10.5783 14.8565C10.5339 14.3662 10.5592 13.9606 10.6544 13.6398C10.7495 13.3189 10.9095 13.0681 11.1342 12.8874C11.3539 12.7067 11.636 12.5786 11.9804 12.5031C11.6312 12.4327 11.3444 12.3099 11.12 12.1346C10.8956 11.9651 10.7387 11.7198 10.6492 11.3988C10.5597 11.0835 10.5377 10.6662 10.5832 10.1469L10.9013 6.55814C10.9266 6.19634 10.8595 5.91323 10.7001 5.70881C10.5406 5.50438 10.3112 5.36117 10.0119 5.27915C9.71257 5.19714 9.38077 5.15594 9.0165 5.15556L9.01771 4.00005C9.43687 4.00049 9.83852 4.04467 10.2227 4.13261C10.6068 4.21472 10.946 4.35805 11.2402 4.56261C11.5344 4.76717 11.7561 5.04753 11.9055 5.40368C12.0548 5.75399 12.1042 6.19757 12.0538 6.73442L11.7509 10.0606C11.7106 10.4632 11.7427 10.8017 11.8472 11.0761C11.9467 11.3505 12.166 11.5579 12.5052 11.6983C12.8394 11.8446 13.3408 11.918 14.0095 11.9187L14.0082 13.0918C13.3396 13.0911 12.838 13.1606 12.5035 13.3003C12.1641 13.44 11.9443 13.6469 11.8442 13.9211C11.7391 14.1953 11.7063 14.5308 11.7458 14.9277L12.0418 18.272C12.0911 18.809 12.0407 19.2524 11.8907 19.6024C11.7406 19.9583 11.5208 20.2382 11.2311 20.4421C10.9365 20.6461 10.597 20.7887 10.2127 20.87C9.8234 20.9571 9.41916 21.0005 9 21Z" fill="white"/>
</g>
<defs>
<filter id="filter0_d_74_4" x="9" y="4" width="7.00952" height="19" filterUnits="userSpaceOnUse" color-interpolation-filters="sRGB">
<feFlood flood-opacity="0" result="BackgroundImageFix"/>
<feColorMatrix in="SourceAlpha" type="matrix" values="0 0 0 0 0 0 0 0 0 0 0 0 0 0 0 0 0 0 127 0" result="hardAlpha"/>
<feOffset dx="1" dy="1"/>
<feGaussianBlur stdDeviation="0.5"/>
<feComposite in2="hardAlpha" operator="out"/>
<feColorMatrix type="matrix" values="0 0 0 0 0 0 0 0 0 0 0 0 0 0 0 0 0 0 0.25 0"/>
<feBlend mode="normal" in2="BackgroundImageFix" result="effect1_dropShadow_74_4"/>
<feBlend mode="normal" in="SourceGraphic" in2="effect1_dropShadow_74_4" result="shape"/>
</filter>
</defs>
</svg>
