<svg width="61" height="61" viewBox="0 0 61 61" fill="none" xmlns="http://www.w3.org/2000/svg">
<path d="M30.1902 60.8184C46.7615 60.8184 60.1952 47.3847 60.1952 30.8133C60.1952 14.242 46.7615 0.808228 30.1902 0.808228C13.6188 0.808228 0.185059 14.242 0.185059 30.8133C0.185059 47.3847 13.6188 60.8184 30.1902 60.8184Z" fill="#13AA52"/>
<path d="M38.2113 27.1471C36.316 18.7826 31.8369 16.0323 31.3546 14.9815C30.8272 14.2402 30.2927 12.9216 30.2927 12.9216C30.2839 12.8993 30.2699 12.8601 30.2535 12.822C30.199 13.5633 30.1708 13.8493 29.4699 14.5971C28.3846 15.4457 22.8161 20.1182 22.3631 29.6213C21.9405 38.4846 28.7655 43.7659 29.6885 44.4393L29.7934 44.5137V44.5072C29.7993 44.5518 30.0864 46.617 30.288 48.8052H31.0112C31.1809 47.2584 31.4352 45.7221 31.7731 44.2031L31.8317 44.165C32.2445 43.869 32.6382 43.547 33.0102 43.201L33.0524 43.1629C35.0144 41.3503 38.5418 37.1578 38.5072 30.4734C38.4999 29.3584 38.4009 28.2459 38.2113 27.1471ZM30.2113 39.4351C30.2113 39.4351 30.2113 27.0041 30.6215 27.0064C30.9415 27.0064 31.3558 43.041 31.3558 43.041C30.7862 42.9724 30.2113 40.4021 30.2113 39.4351Z" fill="white"/>
</svg>
