<svg width="61" height="61" viewBox="0 0 61 61" fill="none" xmlns="http://www.w3.org/2000/svg">
<path fill-rule="evenodd" clip-rule="evenodd" d="M30.636 0.500854C47.1436 0.500854 60.6405 13.9976 60.6405 30.5053C60.6405 47.0129 47.1437 60.5098 30.636 60.5098C14.1285 60.5098 0.631592 47.0129 0.631592 30.5053C0.631592 13.9977 14.1285 0.500854 30.636 0.500854Z" fill="#57A05A"/>
<path d="M30.6358 47.749C30.5094 47.7489 30.3852 47.7155 30.2758 47.6521L25.9411 45.1431C25.7762 45.0476 25.656 44.8905 25.6069 44.7064C25.5579 44.5224 25.5839 44.3263 25.6794 44.1614C25.7749 43.9966 25.9319 43.8764 26.116 43.8273C26.3001 43.7782 26.4961 43.8043 26.661 43.8997L30.6358 46.1997L43.5685 38.7131V22.2975L30.6358 14.8109L17.7031 22.2975V38.7132L18.8671 39.3868C20.0024 40.1704 21.3531 40.5818 22.7325 40.5641C23.439 40.5641 24.1694 40.5641 24.1694 37.6902V24.039C24.1694 23.8485 24.2451 23.6657 24.3799 23.531C24.5146 23.3962 24.6974 23.3205 24.8879 23.3205C25.0785 23.3205 25.2612 23.3962 25.396 23.531C25.5307 23.6657 25.6064 23.8485 25.6064 24.039V37.6902C25.6064 39.9298 25.2584 42.0011 22.7325 42.0011C21.0964 42.013 19.4944 41.5329 18.1346 40.623L16.6247 39.7488C16.5156 39.6858 16.425 39.5952 16.362 39.486C16.2991 39.3769 16.266 39.2531 16.2661 39.1272V21.8836C16.266 21.7576 16.2991 21.6338 16.362 21.5247C16.425 21.4155 16.5156 21.3249 16.6247 21.2619L30.2758 13.3586C30.3852 13.2952 30.5094 13.2617 30.6358 13.2617C30.7622 13.2617 30.8864 13.2952 30.9958 13.3586L44.6469 21.2619C44.756 21.3249 44.8466 21.4155 44.9095 21.5247C44.9725 21.6338 45.0056 21.7576 45.0055 21.8836V39.1272C45.0056 39.2531 44.9725 39.3769 44.9095 39.4861C44.8466 39.5952 44.756 39.6858 44.6469 39.7488L30.9957 47.6521C30.8864 47.7155 30.7622 47.7489 30.6358 47.749Z" fill="#FFFFFE"/>
<path d="M33.5101 37.6901C30.3407 37.6901 27.7622 35.7564 27.7622 33.3792C27.7622 33.1887 27.8379 33.0059 27.9726 32.8712C28.1074 32.7364 28.2901 32.6608 28.4807 32.6608C28.6712 32.6608 28.854 32.7364 28.9887 32.8712C29.1235 33.0059 29.1992 33.1887 29.1992 33.3792C29.1992 34.9369 31.1736 36.2532 33.5101 36.2532C35.8466 36.2532 37.821 34.9369 37.821 33.3792C37.821 32.359 36.0507 31.2238 33.5101 31.2238C30.2867 31.2238 27.7622 29.6465 27.7622 27.6314C27.7622 25.2542 30.3407 23.3205 33.5101 23.3205C36.6794 23.3205 39.2579 25.2542 39.2579 27.6314C39.2579 27.8219 39.1822 28.0047 39.0475 28.1394C38.9128 28.2742 38.73 28.3498 38.5395 28.3498C38.3489 28.3498 38.1662 28.2742 38.0314 28.1394C37.8967 28.0047 37.821 27.8219 37.821 27.6314C37.821 26.0737 35.8466 24.7574 33.5101 24.7574C31.1736 24.7574 29.1992 26.0737 29.1992 27.6314C29.1992 28.6516 30.9694 29.7868 33.5101 29.7868C36.7334 29.7868 39.2579 31.3641 39.2579 33.3792C39.2579 35.7564 36.6794 37.6901 33.5101 37.6901Z" fill="#FFFFFE"/>
<path d="M30.6358 47.749C30.5094 47.7489 30.3852 47.7155 30.2758 47.6521L25.9411 45.1431C25.7762 45.0476 25.656 44.8905 25.6069 44.7064C25.5579 44.5224 25.5839 44.3263 25.6794 44.1614C25.7749 43.9966 25.9319 43.8764 26.116 43.8273C26.3001 43.7782 26.4961 43.8043 26.661 43.8997L30.6358 46.1997L43.5685 38.7131V22.2975L30.6358 14.8109L17.7031 22.2975V38.7132L18.8671 39.3868C20.0024 40.1704 21.3531 40.5818 22.7325 40.5641C23.439 40.5641 24.1694 40.5641 24.1694 37.6902V24.039C24.1694 23.8485 24.2451 23.6657 24.3799 23.531C24.5146 23.3962 24.6974 23.3205 24.8879 23.3205C25.0785 23.3205 25.2612 23.3962 25.396 23.531C25.5307 23.6657 25.6064 23.8485 25.6064 24.039V37.6902C25.6064 39.9298 25.2584 42.0011 22.7325 42.0011C21.0964 42.013 19.4944 41.5329 18.1346 40.623L16.6247 39.7488C16.5156 39.6858 16.425 39.5952 16.362 39.486C16.2991 39.3769 16.266 39.2531 16.2661 39.1272V21.8836C16.266 21.7576 16.2991 21.6338 16.362 21.5247C16.425 21.4155 16.5156 21.3249 16.6247 21.2619L30.2758 13.3586C30.3852 13.2952 30.5094 13.2617 30.6358 13.2617C30.7622 13.2617 30.8864 13.2952 30.9958 13.3586L44.6469 21.2619C44.756 21.3249 44.8466 21.4155 44.9095 21.5247C44.9725 21.6338 45.0056 21.7576 45.0055 21.8836V39.1272C45.0056 39.2531 44.9725 39.3769 44.9095 39.4861C44.8466 39.5952 44.756 39.6858 44.6469 39.7488L30.9957 47.6521C30.8864 47.7155 30.7622 47.7489 30.6358 47.749Z" fill="#FFFFFE"/>
<path d="M33.5101 37.6901C30.3407 37.6901 27.7622 35.7564 27.7622 33.3792C27.7622 33.1887 27.8379 33.0059 27.9726 32.8712C28.1074 32.7364 28.2901 32.6608 28.4807 32.6608C28.6712 32.6608 28.854 32.7364 28.9887 32.8712C29.1235 33.0059 29.1992 33.1887 29.1992 33.3792C29.1992 34.9369 31.1736 36.2532 33.5101 36.2532C35.8466 36.2532 37.821 34.9369 37.821 33.3792C37.821 32.359 36.0507 31.2238 33.5101 31.2238C30.2867 31.2238 27.7622 29.6465 27.7622 27.6314C27.7622 25.2542 30.3407 23.3205 33.5101 23.3205C36.6794 23.3205 39.2579 25.2542 39.2579 27.6314C39.2579 27.8219 39.1822 28.0047 39.0475 28.1394C38.9128 28.2742 38.73 28.3498 38.5395 28.3498C38.3489 28.3498 38.1662 28.2742 38.0314 28.1394C37.8967 28.0047 37.821 27.8219 37.821 27.6314C37.821 26.0737 35.8466 24.7574 33.5101 24.7574C31.1736 24.7574 29.1992 26.0737 29.1992 27.6314C29.1992 28.6516 30.9694 29.7868 33.5101 29.7868C36.7334 29.7868 39.2579 31.3641 39.2579 33.3792C39.2579 35.7564 36.6794 37.6901 33.5101 37.6901Z" fill="#FFFFFE"/>
</svg>
