<svg width="59" height="60" viewBox="0 0 59 60" fill="none" xmlns="http://www.w3.org/2000/svg">
<path d="M29.1664 0.808708C26.7721 0.819833 24.4856 1.02404 22.4736 1.38004C16.5468 2.42713 15.4707 4.61876 15.4707 8.66051V13.9984H29.4766V15.7777H15.4707H10.2144C6.14385 15.7777 2.5796 18.2244 1.46474 22.8787C0.178773 28.2136 0.121733 31.5426 1.46474 37.1131C2.46033 41.2596 4.83794 44.214 8.90845 44.214H13.724V37.815C13.724 33.1922 17.7238 29.1144 22.4736 29.1144H36.4632C40.3574 29.1144 43.4662 25.908 43.4662 21.9972V8.66051C43.4662 4.86483 40.2641 2.01353 36.4632 1.38004C34.0572 0.979534 31.5608 0.797582 29.1664 0.808708ZM21.5921 5.1019C23.0389 5.1019 24.2203 6.30263 24.2203 7.77902C24.2203 9.25018 23.0389 10.4398 21.5921 10.4398C20.1402 10.4398 18.964 9.25018 18.964 7.77902C18.964 6.30263 20.1402 5.1019 21.5921 5.1019Z" fill="url(#paint0_linear_23_54)"/>
<path d="M45.2129 15.7777V21.9972C45.2129 26.819 41.1249 30.8774 36.4633 30.8774H22.4737C18.6417 30.8774 15.4707 34.157 15.4707 37.9946V51.3312C15.4707 55.1269 18.7713 57.3595 22.4737 58.4485C26.9072 59.7521 31.1586 59.9877 36.4633 58.4485C39.9893 57.4276 43.4662 55.373 43.4662 51.3312V45.9933H29.4766V44.214H43.4662H50.4692C54.5397 44.214 56.0565 41.3747 57.4722 37.1131C58.9344 32.7258 58.8722 28.5067 57.4722 22.8786C56.4662 18.8264 54.5449 15.7777 50.4692 15.7777H45.2129ZM37.3448 49.5519C38.7967 49.5519 39.9729 50.7416 39.9729 52.2127C39.9729 53.6891 38.7967 54.8899 37.3448 54.8899C35.898 54.8899 34.7166 53.6891 34.7166 52.2127C34.7166 50.7416 35.898 49.5519 37.3448 49.5519Z" fill="url(#paint1_linear_23_54)"/>
<defs>
<linearGradient id="paint0_linear_23_54" x1="0.47876" y1="0.808228" x2="32.7749" y2="28.329" gradientUnits="userSpaceOnUse">
<stop stop-color="#5A9FD4"/>
<stop offset="1" stop-color="#306998"/>
</linearGradient>
<linearGradient id="paint1_linear_23_54" x1="37.0082" y1="51.764" x2="25.4216" y2="35.5276" gradientUnits="userSpaceOnUse">
<stop stop-color="#FFD43B"/>
<stop offset="1" stop-color="#FFE873"/>
</linearGradient>
</defs>
</svg>
