<svg width="61" height="61" viewBox="0 0 61 61" fill="none" xmlns="http://www.w3.org/2000/svg">
<path fill-rule="evenodd" clip-rule="evenodd" d="M30.9127 0.310669C47.4202 0.310669 60.9171 13.8074 60.9171 30.3151C60.9171 46.8227 47.4204 60.3196 30.9127 60.3196C14.4051 60.3196 0.908203 46.8227 0.908203 30.3151C0.908203 13.8075 14.4051 0.310669 30.9127 0.310669Z" fill="#1E88E5"/>
<path fill-rule="evenodd" clip-rule="evenodd" d="M33.3583 30.3149C33.3583 28.9675 32.2594 27.8687 30.912 27.8687C29.5646 27.8687 28.4658 28.9676 28.4658 30.3149C28.4658 31.6622 29.5647 32.7612 30.912 32.7612C32.2594 32.7612 33.3583 31.6622 33.3583 30.3149Z" fill="#FFFFFE"/>
<path fill-rule="evenodd" clip-rule="evenodd" d="M44.7946 35.026C44.9373 34.8485 45.0229 34.623 45.0229 34.3775C45.0229 33.8051 44.5588 33.3412 43.9866 33.3412C43.899 33.3412 43.8142 33.3522 43.733 33.3725C43.4951 33.0584 43.2332 32.7378 42.9475 32.4109C42.3405 31.7164 41.644 31.0144 40.8719 30.3155C41.644 29.6165 42.3406 28.9144 42.9475 28.22C44.0001 27.016 44.731 25.8946 45.1198 24.887C45.5469 23.7808 45.548 22.8468 45.1232 22.1111C44.6985 21.3754 43.889 20.9094 42.7175 20.7261C41.6505 20.5591 40.3138 20.6314 38.7448 20.941C37.8399 21.1195 36.8837 21.3717 35.8924 21.6909C35.6792 20.7011 35.4277 19.7719 35.1403 18.919C35.3719 18.7289 35.5198 18.4404 35.5198 18.1175C35.5198 17.5451 35.0558 17.0812 34.4835 17.0812C34.4575 17.0812 34.4318 17.0824 34.4063 17.0844C34.0685 16.3772 33.7038 15.7795 33.3153 15.298C32.5708 14.375 31.7625 13.907 30.913 13.907C30.0635 13.907 29.2551 14.375 28.5107 15.298C27.8326 16.1385 27.2269 17.3322 26.7103 18.8457C26.4124 19.7187 26.1528 20.6729 25.9335 21.691C24.9421 21.3719 23.9858 21.1196 23.081 20.9411C21.5119 20.6316 20.1754 20.5592 19.1084 20.7263C17.9368 20.9096 17.1275 21.3755 16.7027 22.1112C16.278 22.8469 16.2791 23.7809 16.706 24.8872C16.8136 25.1659 16.9475 25.4533 17.1069 25.7487C16.9611 25.9272 16.8735 26.1552 16.8735 26.4037C16.8735 26.9761 17.3376 27.44 17.91 27.44C18.0108 27.44 18.1081 27.4254 18.2003 27.3985C18.4091 27.6677 18.635 27.9418 18.8785 28.2202C19.4855 28.9146 20.1821 29.6166 20.9541 30.3156C20.182 31.0145 19.4855 31.7167 18.8785 32.411C17.826 33.615 17.095 34.7364 16.7062 35.744C16.2792 36.8502 16.278 37.7842 16.7029 38.5199C17.1276 39.2556 17.9371 39.7216 19.1085 39.905C19.4815 39.9634 19.8872 39.9924 20.3244 39.9924C21.1381 39.9924 22.0605 39.8915 23.0811 39.6901C23.9859 39.5116 24.9423 39.2594 25.9336 38.9403C26.1471 39.9316 26.3991 40.8623 26.6871 41.7163C26.4668 41.9064 26.327 42.1875 26.327 42.5013C26.327 43.0737 26.7909 43.5376 27.3634 43.5376C27.3806 43.5376 27.3977 43.5371 27.4147 43.5364C27.7539 44.2482 28.1203 44.8495 28.5108 45.3334C29.2553 46.2563 30.0636 46.7243 30.9131 46.7243C31.7626 46.7243 32.5709 46.2563 33.3154 45.3334C33.9935 44.4928 34.5992 43.2992 35.1156 41.7855C35.4135 40.9126 35.6732 39.9584 35.8925 38.9403C36.8838 39.2594 37.8402 39.5116 38.745 39.6901C39.7657 39.8916 40.688 39.9924 41.5018 39.9924C41.9389 39.9924 42.3449 39.9632 42.7177 39.905C43.8893 39.7216 44.6986 39.2556 45.1234 38.5199C45.5481 37.7842 45.547 36.8502 45.1201 35.744C45.0297 35.5106 44.921 35.271 44.7946 35.026ZM38.8784 21.6187C39.8582 21.4255 40.7398 21.3302 41.5037 21.3302C43.0364 21.3302 44.0957 21.7135 44.5247 22.4566C45.1677 23.5701 44.4031 25.505 42.4271 27.7654C41.8223 28.4573 41.1256 29.1574 40.3514 29.8549C39.2365 28.8892 37.9822 27.9339 36.625 27.0176C36.5101 25.3841 36.31 23.8201 36.0311 22.3718C37.0221 22.0498 37.9769 21.7965 38.8784 21.6187ZM33.4806 34.763C32.6249 35.257 31.7661 35.7177 30.9129 36.1416C30.0596 35.7177 29.2008 35.2571 28.3451 34.763C27.4894 34.2689 26.661 33.7555 25.8673 33.2285C25.8077 32.2775 25.7773 31.3035 25.7773 30.3153C25.7773 29.3273 25.8077 28.3531 25.8673 27.4022C26.661 26.8751 27.4894 26.3617 28.3451 25.8677C29.2008 25.3737 30.0596 24.9129 30.9129 24.489C31.7661 24.9129 32.6249 25.3736 33.4806 25.8677C34.3363 26.3617 35.1647 26.8751 35.9584 27.4022C36.018 28.353 36.0484 29.3271 36.0484 30.3153C36.0484 31.3035 36.018 32.2775 35.9584 33.2285C35.1647 33.7555 34.3362 34.2689 33.4806 34.763ZM35.8954 34.0957C35.7815 35.4759 35.6052 36.7993 35.3706 38.0366C34.1818 37.6211 32.9475 37.1121 31.6952 36.5207C32.4048 36.1579 33.1166 35.7709 33.826 35.3614C34.5355 34.9518 35.2265 34.5288 35.8954 34.0957ZM30.1303 36.5207C28.878 37.1121 27.6438 37.6211 26.4549 38.0366C26.2203 36.7993 26.044 35.4759 25.9301 34.0957C26.599 34.5287 27.2901 34.9518 27.9995 35.3612C28.7089 35.7709 29.4208 36.158 30.1303 36.5207ZM25.1476 32.7404C24.0094 31.9517 22.9514 31.1372 21.9972 30.3153C22.9514 29.4936 24.0094 28.6791 25.1476 27.8903C25.1069 28.6861 25.0863 29.4961 25.0863 30.3153C25.0863 31.1345 25.1071 31.9446 25.1476 32.7404ZM25.9301 26.5351C26.044 25.155 26.2203 23.8315 26.4549 22.5942C27.6437 23.0097 28.878 23.5187 30.1303 24.1101C29.4207 24.4729 28.7089 24.8599 27.9995 25.2694C27.2901 25.679 26.599 26.1021 25.9301 26.5351ZM31.6952 24.1102C32.9475 23.5188 34.1818 23.0098 35.3706 22.5943C35.6052 23.8316 35.7815 25.155 35.8954 26.5352C35.2265 26.1022 34.5354 25.6791 33.826 25.2697C33.1166 24.8599 32.4048 24.4729 31.6952 24.1102ZM36.678 27.8904C37.8162 28.6791 38.8743 29.4936 39.8284 30.3155C38.8743 31.1372 37.8162 31.9517 36.678 32.7405C36.7185 31.9446 36.7393 31.1347 36.7393 30.3155C36.7393 29.4962 36.7185 28.6863 36.678 27.8904ZM27.364 19.0685C28.3335 16.2272 29.6269 14.5977 30.9127 14.5977C31.9136 14.5977 32.9191 15.5852 33.7729 17.3631C33.5723 17.5521 33.4469 17.8199 33.4469 18.1174C33.4469 18.6897 33.9109 19.1536 34.4832 19.1536C34.4855 19.1536 34.4879 19.1535 34.4901 19.1535C34.7748 20.0003 35.0232 20.9249 35.2331 21.9111C33.8393 22.3937 32.3849 23.0025 30.9127 23.7197C29.4406 23.0025 27.9862 22.3939 26.5924 21.9111C26.8092 20.8918 27.0673 19.9383 27.364 19.0685ZM19.3983 27.7653C19.1695 27.5035 18.9572 27.2463 18.7612 26.994C18.8775 26.8264 18.946 26.623 18.946 26.4035C18.946 25.8311 18.4821 25.3671 17.9097 25.3671C17.8373 25.3671 17.7666 25.3745 17.6985 25.3887C17.0473 24.1709 16.8987 23.1529 17.3009 22.4564C17.7299 21.7132 18.789 21.33 20.3219 21.33C21.0857 21.33 21.9676 21.4252 22.9472 21.6185C23.8488 21.7964 24.8036 22.0497 25.7947 22.3714C25.5157 23.8197 25.3156 25.3837 25.2007 27.0172C23.8435 27.9335 22.5891 28.8887 21.4743 29.8546C20.6999 29.1573 20.0032 28.4571 19.3983 27.7653ZM22.9471 39.0122C20.0017 39.5932 17.9437 39.2879 17.3007 38.1743C16.6578 37.0608 17.4223 35.1259 19.3982 32.8655C20.003 32.1736 20.6998 31.4735 21.4741 30.776C22.589 31.7417 23.8433 32.697 25.2005 33.6133C25.3154 35.2469 25.5155 36.8108 25.7944 38.2591C24.8034 38.581 23.8487 38.8343 22.9471 39.0122ZM34.4615 41.5622C33.492 44.4036 32.1986 46.0332 30.9127 46.0332C29.9127 46.0332 28.9082 45.0474 28.0549 43.2726C28.2662 43.0828 28.3994 42.8075 28.3994 42.5011C28.3994 41.9287 27.9355 41.4647 27.3631 41.4647C27.3525 41.4647 27.342 41.4652 27.3315 41.4655C27.0485 40.6219 26.8013 39.7014 26.5924 38.7198C27.9862 38.2372 29.4406 37.6286 30.9127 36.9113C32.3849 37.6286 33.8393 38.2372 35.2331 38.7198C35.0163 39.739 34.7583 40.6926 34.4615 41.5622ZM44.5247 38.1743C44.0957 38.9174 43.0366 39.3007 41.5037 39.3007C40.7398 39.3006 39.858 39.2054 38.8784 39.0122C37.9768 38.8343 37.022 38.581 36.0309 38.2593C36.3099 36.8109 36.51 35.247 36.6249 33.6134C37.9822 32.6972 39.2365 31.7419 40.3513 30.7761C41.1254 31.4735 41.8222 32.1738 42.4271 32.8656C42.6923 33.1689 42.9354 33.4664 43.1565 33.7568C43.0268 33.9298 42.9501 34.1446 42.9501 34.3776C42.9501 34.9499 43.4141 35.4139 43.9865 35.4139C44.0612 35.4139 44.1341 35.4058 44.2044 35.3907C44.7894 36.5427 44.9104 37.5063 44.5247 38.1743Z" fill="#FFFFFE"/>
</svg>
