<svg width="61" height="61" viewBox="0 0 61 61" fill="none" xmlns="http://www.w3.org/2000/svg">
<path fill-rule="evenodd" clip-rule="evenodd" d="M30.19 0.310669C46.6976 0.310669 60.1945 13.8074 60.1945 30.3151C60.1945 46.8227 46.6977 60.3196 30.19 60.3196C13.6824 60.3196 0.185547 46.8227 0.185547 30.3151C0.185547 13.8075 13.6824 0.310669 30.19 0.310669Z" fill="#6366F1"/>
<path fill-rule="evenodd" clip-rule="evenodd" d="M30.1903 20.1117C25.6277 20.1117 22.7768 22.3793 21.6356 26.9145C23.3467 24.6469 25.3427 23.7967 27.6237 24.3633C28.9251 24.6864 29.8557 25.6251 30.8849 26.6644C32.5625 28.3567 34.5042 30.3152 38.7444 30.3152C43.3063 30.3152 46.1579 28.0476 47.2984 23.5131C45.588 25.7807 43.592 26.6308 41.311 26.0636C40.0089 25.7404 39.0783 24.8018 38.0491 23.7632C36.3715 22.0695 34.4305 20.1117 30.1903 20.1117ZM21.6356 30.3152C17.0736 30.3152 14.222 32.5827 13.0815 37.1179C14.7926 34.8503 16.7887 34.0002 19.069 34.5667C20.3711 34.8899 21.3017 35.8286 22.3309 36.8678C24.0084 38.5601 25.9495 40.5186 30.1903 40.5186C34.7523 40.5186 37.6039 38.2517 38.7444 33.7165C37.0333 35.9841 35.0372 36.8343 32.7563 36.2677C31.4548 35.9439 30.5242 35.0052 29.495 33.9666C27.8175 32.2743 25.8757 30.3152 21.6356 30.3152Z" fill="#FAFAFA"/>
</svg>
