<svg width="50" height="52" viewBox="0 0 50 52" fill="none" xmlns="http://www.w3.org/2000/svg">
<path fill-rule="evenodd" clip-rule="evenodd" d="M0.240559 1.0167C0.432405 0.83204 0.708158 0.763682 0.964044 0.837353L49.3547 14.7693C49.6109 14.8431 49.8082 15.0479 49.8723 15.3067C49.9364 15.5654 49.8575 15.8386 49.6654 16.0234L13.346 50.9598C13.154 51.1445 12.8779 51.2128 12.622 51.1388C12.366 51.0648 12.1689 50.8599 12.105 50.6012L0.0337409 1.73282C-0.0301152 1.47431 0.0487122 1.20136 0.240559 1.0167ZM1.79106 2.62752L13.2431 48.9892L47.6996 15.8449L1.79106 2.62752Z" fill="#FAFAFA"/>
<path fill-rule="evenodd" clip-rule="evenodd" d="M25.1507 7.80498C25.4068 7.87896 25.6039 8.08398 25.6678 8.34276L31.6991 32.7842C31.7629 33.0427 31.684 33.3157 31.4921 33.5003C31.3002 33.6849 31.0244 33.7532 30.7686 33.6795L6.58663 26.7112C6.33059 26.6374 6.13337 26.4327 6.06927 26.174C6.00518 25.9154 6.08396 25.6422 6.27592 25.4574L24.4266 7.98417C24.6186 7.79932 24.8947 7.731 25.1507 7.80498ZM8.24113 25.6358L29.942 31.8891L24.5295 9.95537L8.24113 25.6358Z" fill="#FAFAFA"/>
<path fill-rule="evenodd" clip-rule="evenodd" d="M15.4309 16.6307C15.6226 16.4461 15.8981 16.3776 16.1539 16.451L28.1679 19.8998C28.4241 19.9733 28.6215 20.178 28.6859 20.4366C28.7502 20.6953 28.6716 20.9686 28.4797 21.1535L19.4614 29.8464C19.2694 30.0314 18.9933 30.0999 18.7371 30.026C18.4809 29.9521 18.2837 29.747 18.2198 29.4881L15.2241 17.3465C15.1604 17.0881 15.2392 16.8153 15.4309 16.6307ZM16.9808 18.2401L19.3579 27.8746L26.514 20.9767L16.9808 18.2401Z" fill="#FAFAFA"/>
<path fill-rule="evenodd" clip-rule="evenodd" d="M13.1581 4.3246C13.4143 4.39853 13.6115 4.6036 13.6754 4.86247L16.6711 17.0041C16.7348 17.2625 16.656 17.5353 16.4643 17.7199C16.2726 17.9045 15.9971 17.973 15.7413 17.8996L3.72725 14.4508C3.47108 14.3773 3.27363 14.1726 3.20932 13.914C3.145 13.6553 3.22359 13.382 3.41547 13.1971L12.4338 4.50419C12.6258 4.31915 12.9019 4.25068 13.1581 4.3246ZM5.38119 13.3739L14.9144 16.1105L12.5373 6.47602L5.38119 13.3739Z" fill="#FAFAFA"/>
<path fill-rule="evenodd" clip-rule="evenodd" d="M37.1852 11.2459C37.4414 11.3198 37.6386 11.5249 37.7025 11.7838L40.6982 23.9254C40.7619 24.1838 40.6831 24.4566 40.4914 24.6412C40.2997 24.8258 40.0242 24.8943 39.7684 24.8209L27.7543 21.3721C27.4982 21.2986 27.3007 21.0939 27.2364 20.8353C27.1721 20.5766 27.2507 20.3033 27.4426 20.1184L36.4609 11.4255C36.6529 11.2404 36.929 11.172 37.1852 11.2459ZM29.4083 20.2952L38.9415 23.0318L36.5644 13.3973L29.4083 20.2952Z" fill="#FAFAFA"/>
<path fill-rule="evenodd" clip-rule="evenodd" d="M19.152 28.6014C19.4082 28.6753 19.6054 28.8804 19.6693 29.1392L22.665 41.2809C22.7287 41.5393 22.6499 41.8121 22.4582 41.9967C22.2665 42.1813 21.991 42.2498 21.7352 42.1763L9.72115 38.7276C9.46498 38.654 9.26753 38.4494 9.20321 38.1907C9.13889 37.9321 9.21749 37.6588 9.40937 37.4739L18.4277 28.781C18.6197 28.5959 18.8958 28.5274 19.152 28.6014ZM11.3751 37.6506L20.9083 40.3872L18.5312 30.7528L11.3751 37.6506Z" fill="#FAFAFA"/>
</svg>
