<svg width="61" height="61" viewBox="0 0 61 61" fill="none" xmlns="http://www.w3.org/2000/svg">
<path d="M30.4839 60.2206C47.0552 60.2206 60.4889 46.7869 60.4889 30.2155C60.4889 13.6442 47.0552 0.210449 30.4839 0.210449C13.9125 0.210449 0.47876 13.6442 0.47876 30.2155C0.47876 46.7869 13.9125 60.2206 30.4839 60.2206Z" fill="#0284C7"/>
<path d="M39.3764 14.6658L25.3813 28.2338L16.9602 21.751L15.1533 22.7365V37.6953L16.9602 38.6809L25.3813 32.198L39.3764 45.766L45.8155 43.1597V17.2721L39.3764 14.6658ZM17.8801 33.6983V26.7336L21.7238 30.2159L17.8801 33.6983ZM38.3032 36.0746L30.4844 30.2159L38.3032 24.3573V36.0746Z" fill="white"/>
</svg>
