<svg width="19" height="19" viewBox="0 0 19 19" fill="none" xmlns="http://www.w3.org/2000/svg">
<path d="M9.35415 18.7083C4.18879 18.7083 0 14.5195 0 9.35415C0 4.18879 4.18879 0 9.35415 0C14.5195 0 18.7083 4.18879 18.7083 9.35415C18.7083 14.5195 14.5195 18.7083 9.35415 18.7083Z" fill="#7D89A6"/>
<path fill-rule="evenodd" clip-rule="evenodd" d="M13.7304 4.99885C12.5704 3.83707 11.0251 3.19724 9.38068 3.19537C5.9926 3.19537 3.23313 5.95298 3.23313 9.34292C3.23313 10.4261 3.51562 11.485 4.05442 12.4167L3.18262 15.6027L6.4416 14.7477C7.3396 15.2379 8.34985 15.4961 9.37881 15.4961H9.38068C12.7688 15.4961 15.5264 12.7385 15.5282 9.34853C15.5301 7.70594 14.8921 6.16064 13.7304 4.99885ZM9.38255 14.4578H9.38068C8.46397 14.4578 7.5641 14.2108 6.78022 13.745L6.59314 13.6346L4.6587 14.1416L5.17505 12.2558L5.05345 12.0631C4.54271 11.2493 4.27144 10.3101 4.27144 9.34292C4.27331 6.52545 6.56508 4.23368 9.38442 4.23368C10.7501 4.23368 12.0316 4.76687 12.997 5.73222C13.9623 6.69757 14.4937 7.98283 14.4918 9.34666C14.4918 12.166 12.1981 14.4578 9.38255 14.4578ZM12.1851 10.6301C12.0316 10.5533 11.2758 10.1811 11.1355 10.1305C10.9952 10.08 10.8923 10.0538 10.7894 10.2072C10.6865 10.3607 10.3928 10.7068 10.303 10.8097C10.2132 10.9125 10.1234 10.9256 9.96999 10.8489C9.81658 10.7722 9.32081 10.6095 8.73524 10.0856C8.27876 9.6778 7.97007 9.17455 7.88027 9.02114C7.79047 8.86773 7.87092 8.78354 7.94762 8.70684C8.01684 8.63762 8.10103 8.52724 8.17773 8.43744C8.25444 8.34764 8.28063 8.28403 8.33114 8.18114C8.38165 8.07824 8.35733 7.98844 8.31805 7.91174C8.27876 7.83503 7.97194 7.07922 7.84473 6.77053C7.71938 6.4712 7.59403 6.51235 7.49862 6.50674C7.40882 6.503 7.30593 6.50113 7.2049 6.50113C7.10201 6.50113 6.9355 6.54042 6.79519 6.69383C6.65488 6.84723 6.25826 7.21953 6.25826 7.97534C6.25826 8.73116 6.80829 9.46265 6.88499 9.56368C6.96169 9.66657 7.9682 11.2175 9.50976 11.8835C9.87645 12.0425 10.1627 12.1361 10.3853 12.2072C10.7539 12.325 11.0887 12.3082 11.3525 12.2689C11.6481 12.224 12.2618 11.8966 12.389 11.5393C12.5162 11.1801 12.5162 10.8733 12.4788 10.8097C12.4414 10.746 12.3385 10.7086 12.1851 10.6301Z" fill="#171E2F"/>
</svg>
