<svg width="20" height="20" viewBox="0 0 20 20" fill="none" xmlns="http://www.w3.org/2000/svg">
<path d="M9.64584 19.2917C14.9731 19.2917 19.2917 14.9731 19.2917 9.64584C19.2917 4.31859 14.9731 0 9.64584 0C4.31859 0 0 4.31859 0 9.64584C0 14.9731 4.31859 19.2917 9.64584 19.2917Z" fill="#7D89A6"/>
<path d="M12.8023 6.01727H6.48938C6.23709 6.01727 5.98728 6.06698 5.75422 6.16357C5.52116 6.26015 5.30941 6.40171 5.13108 6.58016C4.95275 6.75861 4.81133 6.97045 4.7149 7.20357C4.61847 7.4367 4.56893 7.68654 4.56909 7.93883V11.3529C4.56893 11.6052 4.61847 11.8551 4.7149 12.0882C4.81133 12.3213 4.95275 12.5332 5.13108 12.7116C5.30941 12.8901 5.52116 13.0316 5.75422 13.1282C5.98728 13.2248 6.23709 13.2745 6.48938 13.2745H12.8023C13.0546 13.2745 13.3044 13.2248 13.5375 13.1282C13.7705 13.0316 13.9823 12.8901 14.1606 12.7116C14.3389 12.5332 14.4804 12.3213 14.5768 12.0882C14.6732 11.8551 14.7228 11.6052 14.7226 11.3529V7.93883C14.7228 7.68654 14.6732 7.4367 14.5768 7.20357C14.4804 6.97045 14.3389 6.75861 14.1606 6.58016C13.9823 6.40171 13.7705 6.26015 13.5375 6.16357C13.3044 6.06698 13.0546 6.01727 12.8023 6.01727ZM8.30812 11.2019V8.08986L10.9836 9.64588L8.30812 11.2019Z" fill="#1E2133"/>
</svg>
