<svg width="7" height="19" viewBox="0 0 7 19" fill="none" xmlns="http://www.w3.org/2000/svg">
<g filter="url(#filter0_d_74_2)">
<path d="M2.68221e-06 17L0.001206 15.8445C0.365477 15.8449 0.697359 15.8015 0.996851 15.7143C1.29135 15.6329 1.52104 15.4901 1.68592 15.286C1.84581 15.0819 1.91347 14.8019 1.88889 14.4459L1.57826 10.8565C1.53386 10.3662 1.55923 9.96064 1.65437 9.63976C1.74952 9.31889 1.90946 9.06811 2.1342 8.88743C2.35395 8.70675 2.63602 8.57865 2.98041 8.50314C2.63118 8.43275 2.34438 8.30989 2.12001 8.13458C1.89564 7.96511 1.73871 7.71984 1.64922 7.39877C1.55973 7.08353 1.53771 6.66624 1.58316 6.1469L1.90127 2.55814C1.9266 2.19634 1.85953 1.91323 1.70006 1.70881C1.54059 1.50438 1.3112 1.36117 1.01188 1.27915C0.712568 1.19714 0.380774 1.15594 0.0165027 1.15556L0.017706 5.12872e-05C0.436867 0.00048779 0.838518 0.044674 1.22266 0.132614C1.6068 0.214715 1.94598 0.358049 2.24018 0.562612C2.53437 0.767174 2.75614 1.04753 2.90547 1.40368C3.0548 1.75399 3.10424 2.19757 3.05378 2.73442L2.75092 6.06057C2.71058 6.46321 2.74266 6.80172 2.84716 7.07612C2.94668 7.35051 3.16602 7.55792 3.5052 7.69833C3.83938 7.84458 4.3408 7.91805 5.00946 7.91874L5.00824 9.09176C4.33958 9.09107 3.83801 9.16057 3.50353 9.30029C3.16407 9.44 2.94429 9.64694 2.8442 9.92113C2.73913 10.1953 2.70634 10.5308 2.74585 10.9277L3.04177 14.272C3.09111 14.809 3.04075 15.2524 2.89068 15.6024C2.74061 15.9583 2.52076 16.2382 2.23112 16.4421C1.9365 16.6461 1.59703 16.7887 1.21271 16.87C0.823401 16.9571 0.419164 17.0005 2.68221e-06 17Z" fill="white"/>
</g>
<defs>
<filter id="filter0_d_74_2" x="0" y="0" width="7.00952" height="19" filterUnits="userSpaceOnUse" color-interpolation-filters="sRGB">
<feFlood flood-opacity="0" result="BackgroundImageFix"/>
<feColorMatrix in="SourceAlpha" type="matrix" values="0 0 0 0 0 0 0 0 0 0 0 0 0 0 0 0 0 0 127 0" result="hardAlpha"/>
<feOffset dx="1" dy="1"/>
<feGaussianBlur stdDeviation="0.5"/>
<feComposite in2="hardAlpha" operator="out"/>
<feColorMatrix type="matrix" values="0 0 0 0 0 0 0 0 0 0 0 0 0 0 0 0 0 0 0.25 0"/>
<feBlend mode="normal" in2="BackgroundImageFix" result="effect1_dropShadow_74_2"/>
<feBlend mode="normal" in="SourceGraphic" in2="effect1_dropShadow_74_2" result="shape"/>
</filter>
</defs>
</svg>
