<svg width="813" height="518" viewBox="0 0 813 518" fill="none" xmlns="http://www.w3.org/2000/svg">
<path d="M813 113.2V518H0.429993C0.139993 511.08 0 504.13 0 497.15C0 222.58 222.59 0 497.16 0C617.1 0 727.12 42.47 813 113.2Z" fill="#262B4D"/>
<path d="M813 218.91V518H76.7502C76.4102 511.09 76.2402 504.14 76.2402 497.15C76.2402 264.69 264.69 76.23 497.16 76.23C622.96 76.23 735.87 131.42 813 218.91Z" fill="#202440"/>
<path d="M813 372.8V518H158.45C158.02 511.11 157.81 504.15 157.81 497.15C157.81 309.74 309.74 157.8 497.16 157.8C640.68 157.8 763.4 246.9 813 372.8Z" fill="#1C1F33"/>
</svg>
